<?xml version="1.0" encoding="utf-8"?>
<!-- Generator: Adobe Illustrator 28.2.0, SVG Export Plug-In . SVG Version: 6.00 Build 0)  -->
<svg version="1.1" id="Capa_1" xmlns="http://www.w3.org/2000/svg" xmlns:xlink="http://www.w3.org/1999/xlink" x="0px" y="0px"
	 viewBox="0 0 966.8 466.89" style="enable-background:new 0 0 966.8 466.89;" xml:space="preserve">
<style type="text/css">
	.st0{fill:none;stroke:#010202;stroke-width:0.5;stroke-linecap:round;stroke-linejoin:round;stroke-miterlimit:10;}
	.st1{font-family:'CenturyGothic-Bold';}
	.st2{font-size:9.3782px;}
	.st3{fill:none;stroke:#000000;stroke-width:0.5;stroke-linecap:round;stroke-linejoin:round;stroke-miterlimit:10;}
	.st4{fill:#010202;}
</style>
<g>
	<g id="LWPOLYLINE_00000052797813132654261980000008203925596436092056_">
		<line class="st0" x1="721.3" y1="209.31" x2="239.04" y2="209.31"/>
	</g>
	<g id="POLYLINE_00000089558162081699316560000002319873420669010872_">
		<line class="st0" x1="50.53" y1="311.44" x2="50.53" y2="133.41"/>
	</g>
	<g id="LWPOLYLINE_00000153696555279114610550000009722245887061415076_">
		<polyline class="st0" points="50.53,133.41 88.81,136.21 89.24,136.25 114.68,134.11 121.55,133.57 121.62,133.57 153.51,141.2 
			153.85,141.48 154.2,141.76 247,215.65 265.39,226.5 292.91,247.14 300.7,252.32 		"/>
	</g>
	<g id="LWPOLYLINE_00000038398125253924407760000006507083546410878867_">
		<polyline class="st0" points="673.85,252.32 759.4,271.85 865.44,277.9 		"/>
	</g>
	<g id="LWPOLYLINE_00000132770740775106514130000000982732323457073060_">
		<polyline class="st0" points="300.7,252.32 673.85,252.32 687.98,239.59 		"/>
	</g>
	<g id="LWPOLYLINE_00000021093676008591292730000006087436158331798937_">
		<polyline class="st0" points="687.98,239.59 712.82,217.21 735.55,196.03 739.78,196.17 764.91,196.32 792.1,218.31 865.44,277.9 
			877.47,279.14 912.44,281.94 912.72,282.06 912.72,311.44 50.53,311.44 		"/>
	</g>
	<g id="MULTILEADER_00000181808951621814362300000003864294999509925822_">
		<g id="MTEXT_00000181786620925597172580000005828244761315513989_">
			<text transform="matrix(1 0 0 1 715.7577 291.3493)" class="st1 st2">Nivel de Fundación</text>
		</g>
		<g id="LINE_00000008836675924625752010000011983407725772883112_">
			<line class="st3" x1="701.58" y1="287.15" x2="713.53" y2="287.15"/>
		</g>
		<g id="LWPOLYLINE_00000074431833114621959110000007687709116264953998_">
			<line class="st3" x1="677.57" y1="257" x2="701.58" y2="287.15"/>
		</g>
		<g id="SOLID_00000034771410195754766530000011588596638573494156_">
			<polygon points="676.79,257.62 673.85,252.32 678.35,256.38 678.35,256.38 			"/>
		</g>
	</g>
	<g id="MULTILEADER_00000149358240324387469350000005502383042250756536_">
		<g id="MTEXT_00000058549925169442899920000006349333403672546997_">
			<text transform="matrix(1 0 0 1 794.5585 167.4714)" class="st1 st2">Corona de Dique: 155 m.s.n.m</text>
		</g>
		<g id="LINE_00000176734452221177302880000017732347518031733660_">
			<line class="st3" x1="780.05" y1="164.76" x2="792" y2="164.76"/>
		</g>
		<g id="LWPOLYLINE_00000091737314873763501230000010295665555201373841_">
			<line class="st3" x1="767.49" y1="190.93" x2="780.05" y2="164.76"/>
		</g>
		<g id="SOLID_00000013153324216558768270000002258284248696123568_">
			<polygon points="768.39,191.37 764.91,196.32 766.6,190.5 766.6,190.5 			"/>
		</g>
	</g>
	<g id="MTEXT_00000127003898050928980450000014315659025967207102_">
		<text transform="matrix(1 0 0 1 469.2528 235.28)" class="st4 st1 st2">RELAVES</text>
	</g>
	<g id="MTEXT_00000101781494191112786110000017427921933382350254_">
		<text transform="matrix(1 0 0 1 741.7762 219.5378)" class="st4 st1 st2">DIQUE</text>
		<text transform="matrix(1 0 0 1 738.3368 230.7712)" class="st4 st1 st2">ACTUAL</text>
	</g>
	<g id="MTEXT_00000090281686844096641650000015493545344242762393_">
		<text transform="matrix(1 0 0 1 443.5946 200.2106)" class="st4 st1 st2">Nivel Máximo de Relave</text>
	</g>
	<g id="MTEXT_00000166674881022470919110000016981349178093224871_">
		<text transform="matrix(1 0 0 1 470.998 263.0036)" class="st4 st1 st2">Fondo</text>
	</g>
	<g id="MTEXT_00000018238647506927138040000002195882226763102617_">
		<text transform="matrix(1 0 0 1 667.6083 230.404)" class="st4 st1 st2">1H:1V</text>
	</g>
	<g id="MTEXT_00000057833003600338441170000006525893517625317014_">
		<text transform="matrix(1 0 0 1 236.9315 238.1267)" class="st4 st1 st2">1H:1V</text>
	</g>
	<g id="MTEXT_00000166654903873827131370000000028326089437066629_">
		<text transform="matrix(1 0 0 1 818.2587 232.7409)" class="st4 st1 st2">1.75H:1V</text>
	</g>
</g>
</svg>
