<?xml version="1.0" encoding="utf-8"?>
<!-- Generator: Adobe Illustrator 28.2.0, SVG Export Plug-In . SVG Version: 6.00 Build 0)  -->
<svg version="1.1" id="Capa_1" xmlns="http://www.w3.org/2000/svg" xmlns:xlink="http://www.w3.org/1999/xlink" x="0px" y="0px"
	 viewBox="0 0 966.8 466.89" style="enable-background:new 0 0 966.8 466.89;" xml:space="preserve">
<style type="text/css">
	.st0{fill:none;stroke:#000000;stroke-width:0.5;stroke-linecap:round;stroke-linejoin:round;stroke-miterlimit:10;}
	.st1{fill:#5B5B5B;}
	.st2{font-family:'CenturyGothic-Bold';}
	.st3{font-size:8.4734px;}
	.st4{fill:none;stroke:#5B5B5B;stroke-width:0.5;stroke-linecap:round;stroke-linejoin:round;stroke-miterlimit:10;}
</style>
<g>
	<g id="POLYLINE_00000072274329153702638420000010141203931345211275_">
		<polyline class="st0" points="907.87,258.65 35.13,258.65 35.13,240.65 124.77,234.68 198.47,228.63 209.38,222.62 222.16,216.61 
			235.43,210.6 248.39,204.59 260.05,198.59 271.17,192.58 282.58,186.57 294.21,180.56 315.9,174.55 342.8,168.53 366.82,168.51 
			488.97,228.42 600.62,228.33 722.69,168.25 746.7,168.24 773.61,174.22 795.31,180.2 806.94,186.19 818.37,192.18 829.49,198.17 
			841.16,204.16 854.13,210.15 867.41,216.14 880.2,222.13 907.87,234.11 907.87,258.65 		"/>
	</g>
	<g id="LWPOLYLINE_00000095297897364484130110000004000512590118434196_">
		<line class="st0" x1="391.28" y1="180.51" x2="697.78" y2="180.51"/>
	</g>
	<g id="MULTILEADER_00000144307881946039818830000009063430316150584197_">
		<g id="MTEXT_00000107581169718489687780000006026890668428129191_">
			<text transform="matrix(1 0 0 1 638.4844 251.2543)" class="st1 st2 st3">Nivel de Fundación</text>
		</g>
		<g id="LINE_00000091000505505975567290000009682160108542054581_">
			<line class="st4" x1="625.68" y1="247.46" x2="636.47" y2="247.46"/>
		</g>
		<g id="LWPOLYLINE_00000154403034833452366620000011186951337939706753_">
			<line class="st4" x1="604.91" y1="231.61" x2="625.68" y2="247.46"/>
		</g>
		<g id="SOLID_00000113315409647109886330000009959870402082185868_">
			<polygon class="st1" points="604.36,232.33 600.62,228.33 605.45,230.9 605.45,230.9 			"/>
		</g>
	</g>
	<g id="MULTILEADER_00000102502859085162702050000015183350153409813900_">
		<g id="MTEXT_00000054969179006868607660000000583371915011580032_">
			<text transform="matrix(1 0 0 1 369.5923 142.4618)" class="st1 st2 st3">Corona de Dique</text>
		</g>
		<g id="LINE_00000110464536786461039050000010672447760321057198_">
			<line class="st4" x1="356.48" y1="140.01" x2="367.28" y2="140.01"/>
		</g>
		<g id="LWPOLYLINE_00000170961938509740901430000017122596338793006485_">
			<line class="st4" x1="345.14" y1="163.66" x2="356.48" y2="140.01"/>
		</g>
		<g id="SOLID_00000161589253127323798770000016917420636561032084_">
			<polygon class="st1" points="345.95,164.05 342.8,168.53 344.33,163.27 344.33,163.27 			"/>
		</g>
	</g>
	<g id="MTEXT_00000107560848934739625800000002639030551723446944_">
		<text transform="matrix(1 0 0 1 528.1191 203.8143)" class="st2 st3">RELAVES</text>
	</g>
	<g id="MTEXT_00000082329415728396560550000003931613911436181673_">
		<text transform="matrix(1 0 0 1 327.2026 194.5292)" class="st2 st3">DIQUE</text>
		<text transform="matrix(1 0 0 1 324.0952 204.6791)" class="st2 st3">ACTUAL</text>
	</g>
	<g id="MTEXT_00000116212342469558296730000012009071113275648172_">
		<text transform="matrix(1 0 0 1 504.707 174.931)" class="st2 st3">Nivel Máximo de Relave</text>
	</g>
	<g id="MTEXT_00000150821474304709466400000006924116728653479835_">
		<text transform="matrix(1 0 0 1 531.75 236.4794)" class="st2 st3">Fondo</text>
	</g>
	<g id="MTEXT_00000093882676461405605410000013198617101431697309_">
		<text transform="matrix(1 0 0 1 833.877 192.6761)" class="st2 st3">2H:1V</text>
	</g>
	<g id="MTEXT_00000000188268753293405520000002785477647550636216_">
		<text transform="matrix(1 0 0 1 649.3633 213.5448)" class="st2 st3">1H:1V</text>
	</g>
	<g id="MTEXT_00000052085278090052033210000002182613369049162893_">
		<text transform="matrix(1 0 0 1 416.6504 213.9725)" class="st2 st3">1H:1V</text>
	</g>
	<g id="MTEXT_00000127009424456400602670000001673080241797765038_">
		<text transform="matrix(1 0 0 1 725.0283 194.5292)" class="st2 st3">DIQUE</text>
		<text transform="matrix(1 0 0 1 721.9209 204.6791)" class="st2 st3">ACTUAL</text>
	</g>
	<g id="MULTILEADER_00000068669182150793910340000007121388032907633281_">
		<g id="MTEXT_00000177480655968455882440000005588939377682614667_">
			<text transform="matrix(1 0 0 1 773.4844 142.1683)" class="st1 st2 st3">Corona de Dique</text>
		</g>
		<g id="LINE_00000118381965266915736510000002039259461163739046_">
			<line class="st4" x1="760.37" y1="139.72" x2="771.17" y2="139.72"/>
		</g>
		<g id="LWPOLYLINE_00000065053610720938722470000003357381610129452214_">
			<line class="st4" x1="749.03" y1="163.37" x2="760.37" y2="139.72"/>
		</g>
		<g id="SOLID_00000083049561943486035080000012010775580797307293_">
			<polygon class="st1" points="749.84,163.76 746.7,168.24 748.22,162.98 748.22,162.98 			"/>
		</g>
	</g>
</g>
</svg>
